<svg width="800px" height="800px" viewBox="-18.513 -29.399 340.906 430.906" xmlns="http://www.w3.org/2000/svg" xmlns:bx="https://boxy-svg.com">
  <defs>
    <bx:export>
      <bx:file format="svg"></bx:file>
    </bx:export>
    <bx:grid x="-62.154" y="-27.805" width="142.526" height="142.526"></bx:grid>
    <path id="C" d="M29.589 79.999H30c16.568 0 30-4.892 30-10.929v-58.14H29.589v69.07z"></path>
  </defs>
  <svg width="430" height="430" viewBox="0 0 70 70" x="-62.513" y="-29" fill="none" xmlns="http://www.w3.org/2000/svg">
    <rect width="70" height="70" rx="10" style="fill: rgb(31, 47, 65);"></rect>
    <path d="M94.8573 -15.5184C94.8573 -15.5184 68.4787 -2.95593 73.1606 28.1212C78.4135 62.967 47.9525 77.9223 27.1408 69.308C6.32911 60.6639 7.78508 28.6895 -31.7828 27.7024C-72.2071 26.7154 -80.7145 -13.5443 -80.7145 -13.5443" stroke="white" stroke-opacity="0.2" stroke-width="2" stroke-miterlimit="10"></path>
    <path d="M64.3677 -24.8806C64.3677 -24.8806 52.9484 1.68004 57.0308 28.0911C61.1418 54.5021 42.671 57.6128 35.3341 54.5021C20.0894 48.1013 17.1489 13.8237 -7.4597 11.6103C-25.959 9.93536 -50.8531 23.1857 -64.0424 -6.87439" stroke="white" stroke-opacity="0.2" stroke-width="2" stroke-miterlimit="10"></path>
    <path d="M52.0634 -13.0358C52.0634 -13.0358 56.1743 14.0931 37.9891 9.24758C17.1489 3.68422 17.4629 -9.35679 -8.91565 2.96636C-18.308 7.36322 -56.1059 8.64937 -48.4835 -15.5184" stroke="white" stroke-opacity="0.2" stroke-width="2" stroke-miterlimit="10"></path>
    <path d="M38.8741 45.1403C43.2415 45.1403 46.782 39.6766 46.782 32.9368C46.782 26.197 43.2415 20.7333 38.8741 20.7333C34.5067 20.7333 30.9663 26.197 30.9663 32.9368C30.9663 39.6766 34.5067 45.1403 38.8741 45.1403Z" stroke="white" stroke-opacity="0.2" stroke-width="2" stroke-miterlimit="10"></path>
  </svg>
  <title>file_type_kotlin</title>
  <path fill="#ffffff" fill-rule="evenodd" d="M 152.257 82.3 C 210.379 82.3 257.565 129.485 257.565 187.609 C 257.565 245.731 210.379 292.916 152.257 292.916 C 94.134 292.916 46.948 245.731 46.948 187.609 C 46.948 129.485 94.134 82.3 152.257 82.3 Z M 152.257 134.955 C 181.315 134.955 204.911 158.543 204.911 187.609 C 204.911 216.666 181.315 240.262 152.257 240.262 C 123.199 240.262 99.602 216.666 99.602 187.609 C 99.602 158.543 123.192 134.955 152.257 134.955 Z" clip-rule="evenodd" id="path6" style=""></path>
  <path fill="#3949ab" fill-rule="evenodd" d="M 291.302 106.408 C 295.183 110.041 295.108 115.517 295.108 119.827 C 295.108 148.374 294.867 229.567 295.175 258.112 C 295.205 261.091 294.22 264.228 292.746 266.589 L 149.196 187.609 L 291.302 106.408 Z" clip-rule="evenodd" id="path8" style="fill: rgb(0, 89, 156); fill-opacity: 1;"></path>
  <path fill="#00599C" d="M 291.618 268.415 C 293.812 264.57 295.176 260.237 295.176 256.347 L 295.176 121.302 C 295.176 117.412 293.814 113.08 291.619 109.235 L 155.322 188.825 L 291.618 268.415 Z" style=""></path>
  <path fill="#004482" d="M 167.433 345.087 L 283.064 277.565 C 286.395 275.62 289.423 272.261 291.618 268.415 L 155.322 188.825 L 19.026 268.416 C 21.22 272.261 24.248 275.621 27.579 277.565 L 143.21 345.087 C 149.871 348.978 160.773 348.978 167.433 345.087 Z" style=""></path>
  <path fill="#659AD2" d="M 291.619 109.234 C 289.423 105.388 286.394 102.029 283.064 100.084 L 167.433 32.562 C 160.773 28.671 149.871 28.671 143.21 32.562 L 27.579 100.084 C 20.917 103.973 15.468 113.522 15.468 121.302 L 15.468 256.347 C 15.468 260.237 16.83 264.57 19.026 268.415 L 155.322 188.825 L 291.619 109.234 Z" style=""></path>
  <g transform="matrix(0.914082, 0, 0, 0.924531, 15.466766, 29.643374)" style="">
    <path fill="#FFFFFF" d="M153,274.175c-56.243,0-102-45.757-102-102s45.757-102,102-102c36.292,0,70.139,19.53,88.331,50.968
		l-44.143,25.544c-9.105-15.736-26.038-25.512-44.188-25.512c-28.122,0-51,22.878-51,51c0,28.121,22.878,51,51,51
		c18.152,0,35.085-9.776,44.191-25.515l44.143,25.543C223.142,254.644,189.294,274.175,153,274.175z"></path>
  </g>
  <g transform="matrix(0.914082, 0, 0, 0.924531, 15.466766, 29.643374)" style="">
    <polygon fill="#FFFFFF" points="255,166.508 243.666,166.508 243.666,155.175 232.334,155.175 232.334,166.508 221,166.508 
		221,177.841 232.334,177.841 232.334,189.175 243.666,189.175 243.666,177.841 255,177.841 	"></polygon>
  </g>
  <g transform="matrix(0.914082, 0, 0, 0.924531, 15.466766, 29.643374)" style="">
    <polygon fill="#FFFFFF" points="297.5,166.508 286.166,166.508 286.166,155.175 274.834,155.175 274.834,166.508 263.5,166.508 
		263.5,177.841 274.834,177.841 274.834,189.175 286.166,189.175 286.166,177.841 297.5,177.841 	"></polygon>
  </g>
</svg>