<svg width="800px" height="800px" viewBox="-18.513 -29.399 340.906 430.906" xmlns="http://www.w3.org/2000/svg" xmlns:bx="https://boxy-svg.com">
  <defs>
    <bx:export>
      <bx:file format="svg"></bx:file>
    </bx:export>
  </defs>
  <svg width="430" height="430" viewBox="0 0 70 70" x="-62.513" y="-29" fill="none" xmlns="http://www.w3.org/2000/svg">
    <rect width="70" height="70" rx="10" style="fill: rgb(79, 52, 13);"></rect>
    <path d="M94.8573 -15.5184C94.8573 -15.5184 68.4787 -2.95593 73.1606 28.1212C78.4135 62.967 47.9525 77.9223 27.1408 69.308C6.32911 60.6639 7.78508 28.6895 -31.7828 27.7024C-72.2071 26.7154 -80.7145 -13.5443 -80.7145 -13.5443" stroke="white" stroke-opacity="0.2" stroke-width="2" stroke-miterlimit="10"></path>
    <path d="M64.3677 -24.8806C64.3677 -24.8806 52.9484 1.68004 57.0308 28.0911C61.1418 54.5021 42.671 57.6128 35.3341 54.5021C20.0894 48.1013 17.1489 13.8237 -7.4597 11.6103C-25.959 9.93536 -50.8531 23.1857 -64.0424 -6.87439" stroke="white" stroke-opacity="0.2" stroke-width="2" stroke-miterlimit="10"></path>
    <path d="M52.0634 -13.0358C52.0634 -13.0358 56.1743 14.0931 37.9891 9.24758C17.1489 3.68422 17.4629 -9.35679 -8.91565 2.96636C-18.308 7.36322 -56.1059 8.64937 -48.4835 -15.5184" stroke="white" stroke-opacity="0.2" stroke-width="2" stroke-miterlimit="10"></path>
    <path d="M38.8741 45.1403C43.2415 45.1403 46.782 39.6766 46.782 32.9368C46.782 26.197 43.2415 20.7333 38.8741 20.7333C34.5067 20.7333 30.9663 26.197 30.9663 32.9368C30.9663 39.6766 34.5067 45.1403 38.8741 45.1403Z" stroke="white" stroke-opacity="0.2" stroke-width="2" stroke-miterlimit="10"></path>
  </svg>
  <path d="M 110.627 270.23 C 110.627 270.23 98.521 277.271 119.243 279.653 C 144.346 282.516 157.176 282.105 184.84 276.869 C 184.84 276.869 192.112 281.43 202.27 285.38 C 140.254 311.959 61.917 283.84 110.627 270.23 M 103.049 235.546 C 103.049 235.546 89.471 245.597 110.207 247.742 C 137.024 250.508 158.201 250.734 194.846 243.678 C 194.846 243.678 199.915 248.817 207.885 251.627 C 132.903 273.553 49.389 253.357 103.049 235.546" style="fill: rgb(255, 255, 255);"></path>
  <path d="M 166.933 176.712 C 182.214 194.304 162.919 210.136 162.919 210.136 C 162.919 210.136 201.717 190.107 183.899 165.024 C 167.257 141.634 154.494 130.012 223.586 89.942 C 223.586 89.941 115.135 117.028 166.933 176.712" fill="#e76f00" style=""></path>
  <path d="M 248.954 295.884 C 248.954 295.884 257.913 303.267 239.087 308.976 C 203.291 319.82 90.1 323.095 58.656 309.408 C 47.353 304.491 68.549 297.667 75.217 296.235 C 82.172 294.727 86.146 295.007 86.146 295.007 C 73.574 286.153 4.895 312.395 51.259 319.911 C 177.702 340.417 281.752 310.677 248.954 295.884 M 116.449 199.61 C 116.449 199.61 58.872 213.286 96.058 218.251 C 111.76 220.354 143.061 219.879 172.216 217.436 C 196.044 215.426 219.97 211.152 219.97 211.152 C 219.97 211.152 211.568 214.75 205.49 218.9 C 147.022 234.279 34.074 227.123 66.591 211.395 C 94.089 198.102 116.449 199.61 116.449 199.61 M 219.733 257.343 C 279.168 226.458 251.688 196.777 232.507 200.777 C 227.805 201.755 225.709 202.602 225.709 202.602 C 225.709 202.602 227.455 199.869 230.787 198.685 C 268.733 185.344 297.916 238.033 218.537 258.901 C 218.537 258.901 219.459 258.079 219.733 257.343" style="fill: rgb(255, 255, 255);"></path>
  <path d="M 183.899 25.238 C 183.899 25.238 216.815 58.165 152.679 108.798 C 101.25 149.413 140.952 172.571 152.659 199.031 C 122.639 171.945 100.607 148.101 115.388 125.91 C 137.081 93.335 197.181 77.541 183.899 25.238" fill="#e76f00" style=""></path>
  <path d="M 122.288 341.033 C 179.34 344.685 266.946 339.006 269.02 312.013 C 269.02 312.013 265.032 322.245 221.871 330.374 C 173.178 339.536 113.121 338.467 77.501 332.595 C 77.502 332.593 84.793 338.629 122.288 341.033" style="fill: rgb(255, 255, 255);"></path>
</svg>