<svg width="800px" height="800px" viewBox="-18.513 -29.399 340.906 430.906" xmlns="http://www.w3.org/2000/svg" xmlns:bx="https://boxy-svg.com">
  <defs>
    <bx:export>
      <bx:file format="svg"></bx:file>
    </bx:export>
    <bx:grid x="-62.154" y="-27.805" width="142.526" height="142.526"></bx:grid>
    <path id="C" d="M29.589 79.999H30c16.568 0 30-4.892 30-10.929v-58.14H29.589v69.07z"></path>
  </defs>
  <svg width="430" height="430" viewBox="0 0 70 70" x="-62.513" y="-29" fill="none" xmlns="http://www.w3.org/2000/svg">
    <rect width="70" height="70" rx="10" style="fill: rgb(120, 77, 21);"></rect>
    <path d="M94.8573 -15.5184C94.8573 -15.5184 68.4787 -2.95593 73.1606 28.1212C78.4135 62.967 47.9525 77.9223 27.1408 69.308C6.32911 60.6639 7.78508 28.6895 -31.7828 27.7024C-72.2071 26.7154 -80.7145 -13.5443 -80.7145 -13.5443" stroke="white" stroke-opacity="0.2" stroke-width="2" stroke-miterlimit="10"></path>
    <path d="M64.3677 -24.8806C64.3677 -24.8806 52.9484 1.68004 57.0308 28.0911C61.1418 54.5021 42.671 57.6128 35.3341 54.5021C20.0894 48.1013 17.1489 13.8237 -7.4597 11.6103C-25.959 9.93536 -50.8531 23.1857 -64.0424 -6.87439" stroke="white" stroke-opacity="0.2" stroke-width="2" stroke-miterlimit="10"></path>
    <path d="M52.0634 -13.0358C52.0634 -13.0358 56.1743 14.0931 37.9891 9.24758C17.1489 3.68422 17.4629 -9.35679 -8.91565 2.96636C-18.308 7.36322 -56.1059 8.64937 -48.4835 -15.5184" stroke="white" stroke-opacity="0.2" stroke-width="2" stroke-miterlimit="10"></path>
    <path d="M38.8741 45.1403C43.2415 45.1403 46.782 39.6766 46.782 32.9368C46.782 26.197 43.2415 20.7333 38.8741 20.7333C34.5067 20.7333 30.9663 26.197 30.9663 32.9368C30.9663 39.6766 34.5067 45.1403 38.8741 45.1403Z" stroke-opacity="0.2" stroke-width="2" stroke-miterlimit="10" style="stroke: rgb(255, 255, 255);"></path>
  </svg>
  <path d="M 269.773 244.752 C 255.854 244.405 245.068 245.798 236.02 249.624 C 233.411 250.668 229.235 250.669 228.886 253.974 C 230.279 255.366 230.453 257.628 231.671 259.541 C 233.76 263.02 237.412 267.719 240.718 270.155 C 244.371 272.938 248.025 275.721 251.852 278.157 C 258.638 282.333 266.293 284.768 272.904 288.944 C 276.733 291.378 280.559 294.512 284.387 297.122 C 286.301 298.512 287.518 300.775 289.954 301.645 L 289.954 301.123 C 288.736 299.557 288.388 297.295 287.171 295.555 C 285.432 293.816 283.691 292.249 281.952 290.51 C 276.906 283.725 270.643 277.809 263.857 272.938 C 258.291 269.11 246.111 263.891 243.849 257.453 C 243.849 257.453 243.675 257.28 243.501 257.106 C 247.329 256.758 251.852 255.366 255.506 254.322 C 261.422 252.756 266.815 253.104 272.904 251.539 C 275.688 250.842 278.472 249.972 281.255 249.103 L 281.255 247.537 C 278.125 244.405 275.862 240.23 272.556 237.272 C 263.684 229.615 253.94 222.136 243.849 215.873 C 238.455 212.393 231.496 210.13 225.755 207.174 C 223.668 206.128 220.187 205.607 218.97 203.868 C 215.838 200.04 214.098 194.995 211.837 190.471 C 206.793 180.901 201.92 170.29 197.57 160.199 C 194.44 153.413 192.525 146.628 188.698 140.365 C 170.778 110.788 151.292 92.868 121.367 75.296 C 114.929 71.643 107.275 70.076 99.098 68.163 C 94.749 67.988 90.399 67.641 86.049 67.467 C 83.266 66.249 80.482 62.944 78.045 61.377 C 68.131 55.113 42.554 41.544 35.247 59.464 C 30.549 70.773 42.206 81.907 46.207 87.649 C 49.166 91.65 52.993 96.173 55.081 100.698 C 56.299 103.653 56.646 106.787 57.864 109.918 C 60.648 117.572 63.257 126.098 66.911 133.232 C 68.826 136.885 70.913 140.713 73.349 144.018 C 74.74 145.931 77.175 146.802 77.698 149.934 C 75.263 153.413 75.089 158.633 73.696 162.982 C 67.433 182.642 69.869 206.999 78.742 221.439 C 81.525 225.788 88.137 235.359 97.01 231.704 C 104.839 228.573 103.099 218.656 105.361 209.957 C 105.883 207.868 105.535 206.477 106.579 205.086 C 106.579 205.259 106.579 205.434 106.579 205.434 C 109.015 210.305 111.45 215.003 113.711 219.874 C 119.105 228.398 128.5 237.272 136.329 243.188 C 140.506 246.318 143.811 251.712 149.03 253.627 L 149.03 253.104 L 148.682 253.104 C 147.637 251.538 146.072 250.842 144.681 249.624 C 141.549 246.493 138.069 242.665 135.633 239.185 C 128.327 229.442 121.889 218.656 116.147 207.521 C 113.364 202.128 110.928 196.212 108.667 190.819 C 107.622 188.73 107.622 185.6 105.882 184.556 C 103.273 188.383 99.446 191.689 97.531 196.387 C 94.228 203.868 93.878 213.088 92.66 222.657 C 91.965 222.832 92.312 222.657 91.964 223.005 C 86.397 221.613 84.483 215.873 82.395 211 C 77.175 198.648 76.306 178.814 80.83 164.549 C 82.048 160.894 87.267 149.412 85.179 145.932 C 84.136 142.626 80.655 140.713 78.742 138.103 C 76.48 134.797 74.044 130.622 72.479 126.968 C 68.303 117.226 66.215 106.439 61.692 96.695 C 59.604 92.171 55.951 87.474 52.993 83.299 C 49.688 78.602 46.034 75.296 43.424 69.728 C 42.555 67.815 41.336 64.683 42.728 62.595 C 43.076 61.204 43.771 60.682 45.164 60.334 C 47.425 58.419 53.863 60.856 56.124 61.899 C 62.562 64.508 67.955 66.945 73.349 70.598 C 75.784 72.338 78.393 75.644 81.525 76.514 L 85.179 76.514 C 90.747 77.731 97.01 76.862 102.229 78.427 C 111.451 81.384 119.801 85.735 127.283 90.432 C 150.075 104.872 168.863 125.403 181.565 149.934 C 183.653 153.934 184.521 157.589 186.436 161.764 C 190.09 170.29 194.613 178.989 198.266 187.34 C 201.92 195.516 205.399 203.868 210.619 210.653 C 213.229 214.305 223.667 216.22 228.365 218.134 C 231.844 219.699 237.238 221.092 240.37 223.005 C 246.284 226.658 252.2 230.835 257.768 234.836 C 260.552 236.923 269.25 241.273 269.773 244.752 Z" style="fill: rgb(255, 255, 255);"></path>
  <path d="M 92.311 105.433 C 89.353 105.433 87.266 105.782 85.178 106.304 C 85.178 106.303 85.178 106.478 85.178 106.652 L 85.527 106.652 C 86.919 109.435 89.353 111.349 91.093 113.784 C 92.486 116.568 93.703 119.352 95.095 122.136 C 95.269 121.962 95.443 121.788 95.443 121.788 C 97.88 120.047 99.097 117.264 99.097 113.089 C 98.052 111.871 97.879 110.653 97.009 109.435 C 95.965 107.694 93.703 106.825 92.311 105.433 Z" style="fill: rgb(255, 255, 255);"></path>
</svg>