<svg width="800px" height="800px" viewBox="-18.513 -29.399 340.906 430.906" xmlns="http://www.w3.org/2000/svg" xmlns:bx="https://boxy-svg.com">
  <defs>
    <bx:export>
      <bx:file format="svg"></bx:file>
    </bx:export>
    <bx:grid x="-62.154" y="-27.805" width="142.526" height="142.526"></bx:grid>
    <path id="C" d="M29.589 79.999H30c16.568 0 30-4.892 30-10.929v-58.14H29.589v69.07z"></path>
  </defs>
  <svg width="430" height="430" viewBox="0 0 70 70" x="-62.513" y="-29" fill="none" xmlns="http://www.w3.org/2000/svg">
    <rect width="70" height="70" rx="10" style="fill: rgb(0, 39, 75);"></rect>
    <path d="M94.8573 -15.5184C94.8573 -15.5184 68.4787 -2.95593 73.1606 28.1212C78.4135 62.967 47.9525 77.9223 27.1408 69.308C6.32911 60.6639 7.78508 28.6895 -31.7828 27.7024C-72.2071 26.7154 -80.7145 -13.5443 -80.7145 -13.5443" stroke="white" stroke-opacity="0.2" stroke-width="2" stroke-miterlimit="10"></path>
    <path d="M64.3677 -24.8806C64.3677 -24.8806 52.9484 1.68004 57.0308 28.0911C61.1418 54.5021 42.671 57.6128 35.3341 54.5021C20.0894 48.1013 17.1489 13.8237 -7.4597 11.6103C-25.959 9.93536 -50.8531 23.1857 -64.0424 -6.87439" stroke="white" stroke-opacity="0.2" stroke-width="2" stroke-miterlimit="10"></path>
    <path d="M52.0634 -13.0358C52.0634 -13.0358 56.1743 14.0931 37.9891 9.24758C17.1489 3.68422 17.4629 -9.35679 -8.91565 2.96636C-18.308 7.36322 -56.1059 8.64937 -48.4835 -15.5184" stroke="white" stroke-opacity="0.2" stroke-width="2" stroke-miterlimit="10"></path>
    <path d="M38.8741 45.1403C43.2415 45.1403 46.782 39.6766 46.782 32.9368C46.782 26.197 43.2415 20.7333 38.8741 20.7333C34.5067 20.7333 30.9663 26.197 30.9663 32.9368C30.9663 39.6766 34.5067 45.1403 38.8741 45.1403Z" stroke="white" stroke-opacity="0.2" stroke-width="2" stroke-miterlimit="10"></path>
  </svg>
  <title>file_type_kotlin</title>
  <path fill="#283593" fill-rule="evenodd" d="M 144.005 31.797 C 149.113 28.931 155.401 28.931 160.501 31.797 C 185.737 45.961 261.68 88.596 286.924 102.76 C 292.031 105.618 295.175 110.914 295.175 116.646 C 295.175 144.973 295.175 230.236 295.175 258.563 C 295.175 264.296 292.031 269.591 286.924 272.457 C 261.687 286.62 185.745 329.256 160.501 343.42 C 155.394 346.286 149.105 346.286 144.005 343.42 C 118.769 329.256 42.826 286.62 17.582 272.457 C 12.483 269.591 9.338 264.303 9.338 258.571 C 9.338 230.243 9.338 144.981 9.338 116.653 C 9.338 110.921 12.483 105.626 17.59 102.76 C 42.819 88.596 118.776 45.961 144.005 31.797 Z" clip-rule="evenodd" id="path2" style="fill: rgb(0, 68, 130); fill-opacity: 1;"></path>
  <path fill="#5c6bc0" fill-rule="evenodd" d="M 11.625 265.868 C 9.624 263.19 9.338 260.647 9.338 257.224 C 9.338 229.062 9.338 144.289 9.338 116.119 C 9.338 110.418 12.476 105.152 17.568 102.309 C 42.714 88.227 118.401 45.841 143.547 31.752 C 148.639 28.901 155.537 28.961 160.629 31.813 C 185.775 45.893 261.206 87.919 286.352 102 C 288.383 103.144 289.932 104.52 291.317 106.333 L 11.625 265.868 Z" clip-rule="evenodd" id="path4" style="fill: rgb(101, 154, 210); fill-opacity: 1;"></path>
  <path fill="#ffffff" fill-rule="evenodd" d="M 152.257 82.3 C 210.379 82.3 257.565 129.485 257.565 187.609 C 257.565 245.731 210.379 292.916 152.257 292.916 C 94.134 292.916 46.948 245.731 46.948 187.609 C 46.948 129.485 94.134 82.3 152.257 82.3 Z M 152.257 134.955 C 181.315 134.955 204.911 158.543 204.911 187.609 C 204.911 216.666 181.315 240.262 152.257 240.262 C 123.199 240.262 99.602 216.666 99.602 187.609 C 99.602 158.543 123.192 134.955 152.257 134.955 Z" clip-rule="evenodd" id="path6" style=""></path>
  <path fill="#3949ab" fill-rule="evenodd" d="M 291.302 106.408 C 295.183 110.041 295.108 115.517 295.108 119.827 C 295.108 148.374 294.867 229.567 295.175 258.112 C 295.205 261.091 294.22 264.228 292.746 266.589 L 149.196 187.609 L 291.302 106.408 Z" clip-rule="evenodd" id="path8" style="fill: rgb(0, 89, 156); fill-opacity: 1;"></path>
</svg>