<svg width="800px" height="800px" viewBox="-18.513 -29.399 340.906 430.906" xmlns="http://www.w3.org/2000/svg" xmlns:bx="https://boxy-svg.com">
  <defs>
    <bx:export>
      <bx:file format="svg"></bx:file>
    </bx:export>
    <bx:grid x="-62.154" y="-27.805" width="142.526" height="142.526"></bx:grid>
    <path id="C" d="M29.589 79.999H30c16.568 0 30-4.892 30-10.929v-58.14H29.589v69.07z"></path>
    <clipPath id="a">
      <path d="M239.03 226.605l-42.13 24.317c-1.578.91-2.546 2.59-2.546 4.406v48.668c0 1.817.968 3.496 2.546 4.406l42.133 24.336c1.575.907 3.517.907 5.09 0l42.126-24.336c1.57-.91 2.54-2.59 2.54-4.406v-48.668c0-1.816-.97-3.496-2.55-4.406l-42.12-24.317c-.79-.453-1.67-.68-2.55-.68-.88 0-1.76.227-2.55.68"></path>
    </clipPath>
    <linearGradient id="b" x1="-.348" x2="1.251" gradientTransform="rotate(116.114 53.1 202.97) scale(86.48)" gradientUnits="userSpaceOnUse">
      <stop offset="0.3" stop-color="#3E863D"></stop>
      <stop offset="0.5" stop-color="#55934F"></stop>
      <stop offset="0.8" stop-color="#5AAD45"></stop>
    </linearGradient>
    <clipPath id="c">
      <path d="M195.398 307.086c.403.523.907.976 1.5 1.316l36.14 20.875 6.02 3.46c.9.52 1.926.74 2.934.665.336-.027.672-.09 1-.183l44.434-81.36c-.34-.37-.738-.68-1.184-.94l-27.586-15.93-14.582-8.39c-.414-.24-.863-.41-1.32-.53zm0 0"></path>
    </clipPath>
    <linearGradient id="d" x1="-.456" x2=".582" gradientTransform="rotate(-36.46 550.846 -214.337) scale(132.798)" gradientUnits="userSpaceOnUse">
      <stop offset="0.57" stop-color="#3E863D"></stop>
      <stop offset="0.72" stop-color="#619857"></stop>
      <stop offset="1" stop-color="#76AC64"></stop>
    </linearGradient>
    <clipPath id="e">
      <path d="M241.066 225.953c-.707.07-1.398.29-2.035.652l-42.01 24.247 45.3 82.51c.63-.09 1.25-.3 1.81-.624l42.13-24.336c1.3-.754 2.19-2.03 2.46-3.476l-46.18-78.89c-.34-.067-.68-.102-1.03-.102-.14 0-.28.007-.42.02"></path>
    </clipPath>
    <linearGradient id="f" x1=".043" x2=".984" gradientTransform="translate(192.862 279.652) scale(97.417)" gradientUnits="userSpaceOnUse">
      <stop offset="0.16" stop-color="#6BBF47"></stop>
      <stop offset="0.38" stop-color="#79B461"></stop>
      <stop offset="0.47" stop-color="#75AC64"></stop>
      <stop offset="0.7" stop-color="#659E5A"></stop>
      <stop offset="0.9" stop-color="#3E863D"></stop>
    </linearGradient>
  </defs>
  <svg width="430" height="430" viewBox="0 0 70 70" x="-62.513" y="-29" fill="none" xmlns="http://www.w3.org/2000/svg">
    <rect width="70" height="70" rx="10" style="fill: rgb(40, 68, 30);"></rect>
    <path d="M94.8573 -15.5184C94.8573 -15.5184 68.4787 -2.95593 73.1606 28.1212C78.4135 62.967 47.9525 77.9223 27.1408 69.308C6.32911 60.6639 7.78508 28.6895 -31.7828 27.7024C-72.2071 26.7154 -80.7145 -13.5443 -80.7145 -13.5443" stroke="white" stroke-opacity="0.2" stroke-width="2" stroke-miterlimit="10"></path>
    <path d="M64.3677 -24.8806C64.3677 -24.8806 52.9484 1.68004 57.0308 28.0911C61.1418 54.5021 42.671 57.6128 35.3341 54.5021C20.0894 48.1013 17.1489 13.8237 -7.4597 11.6103C-25.959 9.93536 -50.8531 23.1857 -64.0424 -6.87439" stroke="white" stroke-opacity="0.2" stroke-width="2" stroke-miterlimit="10"></path>
    <path d="M52.0634 -13.0358C52.0634 -13.0358 56.1743 14.0931 37.9891 9.24758C17.1489 3.68422 17.4629 -9.35679 -8.91565 2.96636C-18.308 7.36322 -56.1059 8.64937 -48.4835 -15.5184" stroke="white" stroke-opacity="0.2" stroke-width="2" stroke-miterlimit="10"></path>
    <path d="M38.8741 45.1403C43.2415 45.1403 46.782 39.6766 46.782 32.9368C46.782 26.197 43.2415 20.7333 38.8741 20.7333C34.5067 20.7333 30.9663 26.197 30.9663 32.9368C30.9663 39.6766 34.5067 45.1403 38.8741 45.1403Z" stroke="white" stroke-opacity="0.2" stroke-width="2" stroke-miterlimit="10"></path>
  </svg>
  <g transform="matrix(0.77683, 0, 0, 0.77683, -23.104018, 89.011782)">
    <path d="M226.953,280.054c-1.46,0-2.912-0.381-4.19-1.121l-13.339-7.892c-1.991-1.115-1.018-1.509-0.362-1.738   c2.657-0.922,3.195-1.135,6.031-2.743c0.295-0.166,0.687-0.103,0.992,0.076l10.247,6.084c0.372,0.206,0.896,0.206,1.237,0   l39.95-23.058c0.372-0.212,0.61-0.64,0.61-1.081v-46.103c0-0.451-0.239-0.872-0.62-1.101l-39.933-23.038   c-0.368-0.216-0.859-0.216-1.231,0l-39.923,23.045c-0.388,0.222-0.634,0.657-0.634,1.094v46.103c0,0.441,0.245,0.859,0.63,1.068   l10.944,6.323c5.938,2.969,9.573-0.528,9.573-4.041v-45.52c0-0.643,0.518-1.151,1.161-1.151h5.066c0.634,0,1.158,0.508,1.158,1.151   v45.52c0,7.925-4.316,12.47-11.829,12.47c-2.309,0-4.127,0-9.202-2.501l-10.476-6.031c-2.587-1.496-4.19-4.293-4.19-7.288v-46.103   c0-2.995,1.602-5.792,4.19-7.281l39.95-23.085c2.528-1.43,5.888-1.43,8.396,0l39.947,23.085c2.587,1.496,4.196,4.286,4.196,7.281   v46.103c0,2.995-1.609,5.782-4.196,7.288l-39.947,23.065C229.882,279.673,228.433,280.054,226.953,280.054z" fill="#FFFFFF"></path>
    <path d="M239.293,248.292c-17.482,0-21.144-8.024-21.144-14.755c0-0.64,0.514-1.151,1.155-1.151h5.165   c0.577,0,1.058,0.415,1.148,0.979c0.78,5.258,3.105,7.912,13.677,7.912c8.416,0,11.999-1.904,11.999-6.369   c0-2.574-1.015-4.485-14.095-5.766c-10.93-1.081-17.691-3.496-17.691-12.241c0-8.061,6.794-12.868,18.186-12.868   c12.798,0,19.131,4.442,19.933,13.972c0.03,0.328-0.086,0.644-0.305,0.889c-0.219,0.229-0.524,0.368-0.846,0.368h-5.185   c-0.537,0-1.012-0.381-1.121-0.902c-1.244-5.533-4.269-7.301-12.476-7.301c-9.189,0-10.257,3.201-10.257,5.599   c0,2.906,1.261,3.752,13.667,5.394c12.277,1.622,18.109,3.921,18.109,12.549C259.21,243.306,251.952,248.292,239.293,248.292z" fill="#FFFFFF"></path>
  </g>
  <g transform="matrix(0.77683, 0, 0, 0.77683, -23.104018, 89.011782)">
    <path d="M296.899,199.941c0,4.236-3.463,7.699-7.699,7.699c-4.197,0-7.699-3.422-7.699-7.699   c0-4.359,3.586-7.701,7.699-7.701C293.356,192.24,296.899,195.582,296.899,199.941z M282.744,199.919   c0,3.586,2.892,6.479,6.435,6.479c3.586,0,6.479-2.954,6.479-6.479c0-3.584-2.932-6.436-6.479-6.436   C285.676,193.484,282.744,196.293,282.744,199.919z M286.307,195.622h2.976c1.018,0,3.015,0,3.015,2.282   c0,1.589-1.018,1.914-1.632,2.118c1.184,0.082,1.264,0.856,1.426,1.956c0.083,0.692,0.206,1.874,0.448,2.281h-1.831   c-0.043-0.406-0.328-2.607-0.328-2.728c-0.119-0.49-0.285-0.733-0.895-0.733h-1.506v3.461h-1.672v-8.637L286.307,195.622   L286.307,195.622z M287.939,199.41h1.343c1.098,0,1.304-0.773,1.304-1.221c0-1.183-0.816-1.183-1.264-1.183h-1.383L287.939,199.41   L287.939,199.41z" fill="#FFFFFF"></path>
  </g>
  <path d="M 57.099 166.444 C 57.099 165.014 56.346 163.7 55.112 162.991 L 22.209 144.056 C 21.653 143.729 21.029 143.558 20.397 143.532 C 20.341 143.532 20.104 143.532 20.057 143.532 C 19.428 143.558 18.805 143.728 18.24 144.056 L -14.662 162.991 C -15.889 163.7 -16.652 165.014 -16.652 166.444 L -16.58 217.431 C -16.58 218.14 -16.212 218.8 -15.588 219.147 C -14.977 219.513 -14.222 219.513 -13.613 219.147 L 5.94 207.95 C 7.177 207.216 7.93 205.92 7.93 204.502 L 7.93 180.681 C 7.93 179.261 8.682 177.947 9.914 177.241 L 18.24 172.445 C 18.861 172.087 19.539 171.912 20.232 171.912 C 20.91 171.912 21.605 172.087 22.208 172.445 L 30.532 177.241 C 31.764 177.947 32.519 179.262 32.519 180.681 L 32.519 204.502 C 32.519 205.92 33.281 207.224 34.511 207.95 L 54.06 219.147 C 54.672 219.513 55.438 219.513 56.047 219.147 C 56.653 218.799 57.034 218.14 57.034 217.431 L 57.099 166.444 Z" fill="#FFFFFF"></path>
  <path d="M 215.414 96.354 C 214.798 96.011 214.047 96.019 213.439 96.376 C 212.832 96.732 212.458 97.385 212.458 98.089 L 212.458 148.583 C 212.458 149.08 212.192 149.54 211.764 149.788 C 211.334 150.037 210.803 150.037 210.372 149.788 L 202.131 145.04 C 200.901 144.332 199.389 144.334 198.16 145.042 L 165.244 164.038 C 164.014 164.748 163.257 166.06 163.257 167.479 L 163.257 205.478 C 163.257 206.898 164.014 208.209 165.243 208.921 L 198.157 227.931 C 199.388 228.64 200.903 228.64 202.134 227.931 L 235.052 208.921 C 236.282 208.21 237.039 206.898 237.039 205.478 L 237.039 110.754 C 237.039 109.315 236.26 107.985 235.001 107.283 L 215.414 96.354 Z M 212.361 192.993 C 212.361 193.347 212.171 193.675 211.863 193.852 L 200.562 200.367 C 200.255 200.543 199.877 200.543 199.57 200.367 L 188.268 193.852 C 187.961 193.675 187.771 193.347 187.771 192.993 L 187.771 179.943 C 187.771 179.588 187.961 179.26 188.268 179.082 L 199.57 172.554 C 199.877 172.376 200.256 172.376 200.563 172.554 L 211.865 179.082 C 212.171 179.26 212.361 179.588 212.361 179.943 L 212.361 192.993 Z" fill="#FFFFFF"></path>
  <g transform="matrix(0.77683, 0, 0, 0.77683, -23.104018, 89.011782)">
    <path d="M448.131,116.615c1.576-0.915,2.546-2.601,2.546-4.424v-11.854c0-1.823-0.97-3.51-2.548-4.425   L406.03,71.469c-1.584-0.921-3.54-0.922-5.127-0.007l-42.356,24.453c-1.583,0.914-2.558,2.602-2.558,4.43v48.903   c0,1.839,0.987,3.536,2.584,4.445l42.093,23.985c1.552,0.886,3.455,0.896,5.017,0.028l25.46-14.151   c0.808-0.449,1.311-1.297,1.315-2.219c0.007-0.922-0.484-1.776-1.284-2.236l-42.625-24.465c-0.796-0.456-1.285-1.304-1.285-2.22   v-15.326c0-0.914,0.487-1.76,1.28-2.216l13.266-7.648c0.789-0.456,1.765-0.456,2.554,0l13.273,7.648   c0.793,0.456,1.28,1.302,1.28,2.216v12.058c0,0.916,0.49,1.762,1.282,2.218c0.793,0.458,1.77,0.454,2.561-0.005L448.131,116.615z" fill="#FFFFFF"></path>
    <path d="M402.842,114.324c0.304-0.176,0.678-0.176,0.982,0l8.13,4.69c0.304,0.176,0.491,0.499,0.491,0.851v9.388   c0,0.352-0.187,0.675-0.491,0.851l-8.13,4.69c-0.304,0.176-0.678,0.176-0.982,0l-8.124-4.69c-0.304-0.176-0.491-0.499-0.491-0.851   v-9.388c0-0.352,0.187-0.675,0.491-0.851L402.842,114.324z" fill="#FFFFFF"></path>
  </g>
  <g transform="matrix(0.77683, 0, 0, 0.77683, -23.104018, 89.011782)">
    <linearGradient gradientTransform="matrix(1 0 0 -1 0 48.11)" gradientUnits="userSpaceOnUse" id="XMLID_2_" x1="124.196" x2="218.4" y1="-76.8035" y2="-76.8035">
      <stop offset="0.0053" style="stop-color:#FFFFFF"></stop>
      <stop offset="0.1938" style="stop-color:#E8E8E8"></stop>
      <stop offset="0.5423" style="stop-color:#C2C2C2"></stop>
      <stop offset="0.8235" style="stop-color:#ABABAB"></stop>
      <stop offset="1" style="stop-color:#A3A3A3"></stop>
    </linearGradient>
    <path d="M168.756,71.979c1.57-0.907,3.505-0.907,5.075,0l42.03,24.255   c1.572,0.907,2.539,2.582,2.539,4.397v48.546c0,1.813-0.967,3.489-2.538,4.397l-42.03,24.274c-1.571,0.907-3.507,0.907-5.078,0   l-42.021-24.274c-1.57-0.908-2.537-2.583-2.537-4.397v-48.548c0-1.813,0.968-3.489,2.539-4.395L168.756,71.979z" fill="url(#XMLID_2_)" id="XMLID_67_"></path>
    <g>
      <g>
        <g>
          <g>
            <defs>
              <path d="M173.841,71.979c-1.57-0.907-3.505-0.907-5.075,0l-42.03,24.255c-1.572,0.907-2.539,2.582-2.539,4.397        v48.546c0,1.813,0.968,3.489,2.538,4.397l42.03,24.274c1.571,0.907,3.507,0.907,5.078,0l42.021-24.274        c1.57-0.908,2.537-2.583,2.537-4.397v-48.548c0-1.813-0.967-3.489-2.539-4.395L173.841,71.979z" id="SVGID_1_"></path>
            </defs>
            <clipPath id="SVGID_2_">
              <path d="M173.841,71.979c-1.57-0.907-3.505-0.907-5.075,0l-42.03,24.255c-1.572,0.907-2.539,2.582-2.539,4.397        v48.546c0,1.813,0.968,3.489,2.538,4.397l42.03,24.274c1.571,0.907,3.507,0.907,5.078,0l42.021-24.274        c1.57-0.908,2.537-2.583,2.537-4.397v-48.548c0-1.813-0.967-3.489-2.539-4.395L173.841,71.979z" overflow="visible"></path>
            </clipPath>
            <g clip-path="url(#SVGID_2_)">
              <path d="M168.707,71.979l-42.07,24.255c-1.571,0.907-2.637,2.582-2.637,4.395v48.548        c0,1.178,0.444,2.293,1.182,3.182l47.297-80.907C171.216,71.142,169.857,71.314,168.707,71.979z" fill="none"></path>
              <path d="M172.746,178.275c0.337-0.109,0.669-0.245,0.986-0.428l41.93-24.274c1.57-0.908,2.337-2.583,2.337-4.397        V100.63c0-1.218-0.36-2.367-1.066-3.269L172.746,178.275z" fill="none"></path>
              <path d="M215.649,96.233l-41.843-24.255        c-0.419-0.242-0.867-0.414-1.327-0.527l-47.297,80.907c0.398,0.48,0.878,0.896,1.428,1.214l42.094,24.274        c1.255,0.724,2.707,0.86,4.042,0.428l44.188-80.914C216.588,96.919,216.165,96.531,215.649,96.233z" enable-background="new    " fill="#4B4B4B" opacity="0.66"></path>
            </g>
          </g>
        </g>
      </g>
      <g>
        <g>
          <g>
            <defs>
              <path d="M173.841,71.979c-1.57-0.907-3.505-0.907-5.075,0l-42.03,24.255c-1.572,0.907-2.539,2.582-2.539,4.397        v48.546c0,1.813,0.968,3.489,2.538,4.397l42.03,24.274c1.571,0.907,3.507,0.907,5.078,0l42.021-24.274        c1.57-0.908,2.537-2.583,2.537-4.397v-48.548c0-1.813-0.967-3.489-2.539-4.395L173.841,71.979z" id="SVGID_3_"></path>
            </defs>
            <clipPath id="SVGID_4_">
              <path d="M173.841,71.979c-1.57-0.907-3.505-0.907-5.075,0l-42.03,24.255c-1.572,0.907-2.539,2.582-2.539,4.397        v48.546c0,1.813,0.968,3.489,2.538,4.397l42.03,24.274c1.571,0.907,3.507,0.907,5.078,0l42.021-24.274        c1.57-0.908,2.537-2.583,2.537-4.397v-48.548c0-1.813-0.967-3.489-2.539-4.395L173.841,71.979z" overflow="visible"></path>
            </clipPath>
            <g clip-path="url(#SVGID_4_)">
              <path d="M127.114,95.958l-0.477,0.275c-1.571,0.907-2.637,2.582-2.637,4.395v48.548        c0,1.813,1.041,3.489,2.61,4.397l42.094,24.274c1.134,0.655,2.431,0.829,3.656,0.539L127.114,95.958z" fill="none"></path>
              <path d="M218,100.63c0-1.815-0.78-3.49-2.351-4.397l-41.843-24.255c-0.37-0.214-0.763-0.373-1.166-0.486        L218,148.986V100.63z" fill="none"></path>
              <linearGradient gradientTransform="matrix(1 0 0 -1 0 48.11)" gradientUnits="userSpaceOnUse" id="SVGID_5_" x1="123.545" x2="220.7228" y1="-76.7345" y2="-76.7345">
                <stop offset="0" style="stop-color:#A3A3A3"></stop>
                <stop offset="0.1765" style="stop-color:#ABABAB"></stop>
                <stop offset="0.4577" style="stop-color:#C2C2C2"></stop>
                <stop offset="0.8062" style="stop-color:#E8E8E8"></stop>
                <stop offset="0.9947" style="stop-color:#FFFFFF"></stop>
              </linearGradient>
              <path d="M173.732,177.847l41.93-24.274c1.57-0.908,2.337-2.583,2.337-4.397v-0.19l-45.36-77.493        c-1.307-0.366-2.733-0.207-3.933,0.486l-41.593,23.98l45.246,82.428C172.832,178.274,173.295,178.1,173.732,177.847z" fill="url(#SVGID_5_)"></path>
            </g>
          </g>
        </g>
      </g>
    </g>
  </g>
</svg>