<svg width="800px" height="800px" viewBox="-18.513 -29.399 340.906 430.906" xmlns="http://www.w3.org/2000/svg" xmlns:bx="https://boxy-svg.com">
  <defs>
    <bx:export>
      <bx:file format="svg"></bx:file>
    </bx:export>
    <bx:grid x="-62.154" y="-27.805" width="142.526" height="142.526"></bx:grid>
    <path id="C" d="M29.589 79.999H30c16.568 0 30-4.892 30-10.929v-58.14H29.589v69.07z"></path>
  </defs>
  <svg width="430" height="430" viewBox="0 0 70 70" x="-62.513" y="-29" fill="none" xmlns="http://www.w3.org/2000/svg">
    <rect width="70" height="70" rx="10" style="fill: rgb(19, 41, 9);"></rect>
    <path d="M94.8573 -15.5184C94.8573 -15.5184 68.4787 -2.95593 73.1606 28.1212C78.4135 62.967 47.9525 77.9223 27.1408 69.308C6.32911 60.6639 7.78508 28.6895 -31.7828 27.7024C-72.2071 26.7154 -80.7145 -13.5443 -80.7145 -13.5443" stroke="white" stroke-opacity="0.2" stroke-width="2" stroke-miterlimit="10"></path>
    <path d="M64.3677 -24.8806C64.3677 -24.8806 52.9484 1.68004 57.0308 28.0911C61.1418 54.5021 42.671 57.6128 35.3341 54.5021C20.0894 48.1013 17.1489 13.8237 -7.4597 11.6103C-25.959 9.93536 -50.8531 23.1857 -64.0424 -6.87439" stroke="white" stroke-opacity="0.2" stroke-width="2" stroke-miterlimit="10"></path>
    <path d="M52.0634 -13.0358C52.0634 -13.0358 56.1743 14.0931 37.9891 9.24758C17.1489 3.68422 17.4629 -9.35679 -8.91565 2.96636C-18.308 7.36322 -56.1059 8.64937 -48.4835 -15.5184" stroke="white" stroke-opacity="0.2" stroke-width="2" stroke-miterlimit="10"></path>
    <path d="M38.8741 45.1403C43.2415 45.1403 46.782 39.6766 46.782 32.9368C46.782 26.197 43.2415 20.7333 38.8741 20.7333C34.5067 20.7333 30.9663 26.197 30.9663 32.9368C30.9663 39.6766 34.5067 45.1403 38.8741 45.1403Z" stroke="white" stroke-opacity="0.2" stroke-width="2" stroke-miterlimit="10"></path>
  </svg>
  <title>file_type_kotlin</title>
  <g transform="matrix(0.914082, 0, 0, 0.924531, 15.466766, 29.643374)" style=""></g>
  <g transform="matrix(0.914082, 0, 0, 0.924531, 15.466766, 29.643374)" style=""></g>
  <g transform="matrix(0.914082, 0, 0, 0.924531, 15.466766, 29.643374)" style=""></g>
  <g transform="matrix(0.627002, 0, 0, 0.627002, -3.374261, 24.203454)">
    <linearGradient id="SVGID_1_" gradientUnits="userSpaceOnUse" x1="0" y1="0" x2="0.7071" y2="0.7071">
      <stop offset="0" style="stop-color:#E6E6EA"></stop>
      <stop offset="0.1719" style="stop-color:#E2E2E6"></stop>
      <stop offset="0.3482" style="stop-color:#D7D6DA"></stop>
      <stop offset="0.5264" style="stop-color:#C4C2C5"></stop>
      <stop offset="0.7061" style="stop-color:#A9A7A8"></stop>
      <stop offset="0.8852" style="stop-color:#878484"></stop>
      <stop offset="1" style="stop-color:#6D6968"></stop>
    </linearGradient>
    <g>
      <rect x="0.3" y="1.3" class="st0" width="512" height="512" rx="8.291" ry="8.291" style="fill: none;"></rect>
      <g>
        <g>
          <path class="st1" d="M449.1,105.9L287.5,9.9c-19.3-11.5-43.1-11.5-62.4,0L63.5,105.9c-19.3,11.4-31.2,32.6-31.2,55.5v191.9
						c0,22.9,11.9,44.1,31.2,55.5l161.6,95.9c9.6,5.7,20.4,8.6,31.2,8.6c10.8,0,21.5-2.9,31.2-8.6l161.6-95.9
						c19.3-11.5,31.2-32.6,31.2-55.5V161.4C480.3,138.5,468.4,117.3,449.1,105.9z" style="fill: rgb(255, 255, 255);"></path>
        </g>
        <g>
          <path class="st2" d="M449.1,105.9L287.5,9.9c-9.6-5.7-20.4-8.6-31.2-8.6s-21.5,2.9-31.2,8.6L63.5,105.9
						c-19.3,11.4-31.2,32.6-31.2,55.5v191.9c0,22.9,11.9,44.1,31.2,55.5l161.6,95.9c9.6,5.7,20.4,8.6,31.2,8.6
						c10.8,0,21.5-2.9,31.2-8.6l161.6-95.9c19.3-11.5,31.2-32.6,31.2-55.5V161.4C480.3,138.5,468.4,117.3,449.1,105.9z M230.8,494.9
						L69.2,399c-15.8-9.4-25.6-26.9-25.6-45.7V161.4c0-18.8,9.8-36.3,25.6-45.7l161.6-95.9c7.8-4.6,16.6-7,25.5-7s17.8,2.4,25.5,7
						l161.6,95.9c13.3,7.9,22.3,21.6,24.8,37c-5.4-11.4-17.4-14.6-31.5-6.3l-152.9,94.5c-19.1,11.1-33.1,23.7-33.1,46.6v188.4
						c0,13.8,5.5,22.7,14.1,25.3c-2.8,0.5-5.6,0.8-8.5,0.8C247.4,501.9,238.5,499.5,230.8,494.9z" style="fill: rgb(40, 48, 55);"></path>
        </g>
        <g>
          <path class="st3" d="M406.8,371.8l-40.3,24.1c-1.1,0.6-1.9,1.3-1.9,2.6v10.5c0,1.3,0.9,1.8,1.9,1.2l40.9-24.8
						c1.1-0.6,1.2-1.8,1.2-3.1V373C408.7,371.7,407.8,371.2,406.8,371.8z" style="fill: rgb(77, 168, 37);"></path>
        </g>
        <g>
          <path class="st1" d="M321.1,283.2c1.3-0.7,2.4,0.2,2.4,1.9l0.1,13.9c5.8-2.3,10.9-2.9,15.5-1.9c1,0.3,1.4,1.6,1,3.2l-3.1,12.3
						c-0.2,0.9-0.8,1.9-1.4,2.5c-0.3,0.3-0.5,0.5-0.8,0.6c-0.4,0.2-0.8,0.3-1.2,0.2c-2.1-0.5-7.1-1.6-14.9,2.4
						c-8.2,4.2-11.1,11.3-11,16.6c0.1,6.3,3.3,8.3,14.5,8.4c14.9,0.2,21.4,6.8,21.5,21.8c0.2,14.8-7.7,30.6-19.8,40.4l0.3,13.8
						c0,1.7-1.1,3.6-2.4,4.2l-8.2,4.7c-1.3,0.7-2.4-0.1-2.4-1.8l-0.1-13.6c-7,2.9-14.1,3.6-18.6,1.8c-0.9-0.3-1.2-1.6-0.9-3l3-12.5
						c0.2-1,0.8-2,1.5-2.6c0.3-0.2,0.5-0.4,0.8-0.6c0.5-0.2,0.9-0.3,1.3-0.1c4.9,1.6,11.1,0.9,17.1-2.2c7.6-3.9,12.7-11.6,12.6-19.4
						c-0.1-7-3.9-9.9-13.1-10c-11.7,0-22.7-2.3-22.9-19.6c-0.1-14.2,7.3-29,19-38.4l-0.1-13.9c0-1.7,1-3.6,2.4-4.3L321.1,283.2z" style="fill: rgb(255, 255, 255);"></path>
        </g>
      </g>
    </g>
    <g></g>
    <g></g>
    <g></g>
    <g></g>
    <g></g>
    <g></g>
  </g>
</svg>